<?xml version="1.0" encoding="UTF-8"?>
<!-- Generator: visioncortex VTracer 0.6.12 -->
<svg version="1.1" xmlns="http://www.w3.org/2000/svg" width="2395" height="691">
<path d="M0 0 C2.348626 -0.374013 2.348626 -0.374013 5.365196 -0.372595 C6.513558 -0.379337 7.661919 -0.386079 8.84508 -0.393025 C10.120093 -0.385144 11.395107 -0.377263 12.708757 -0.369143 C14.072023 -0.37136 15.435286 -0.374894 16.798545 -0.379633 C20.574456 -0.38889 24.350127 -0.379274 28.12602 -0.366799 C32.222562 -0.356539 36.319078 -0.3636 40.415625 -0.368531 C47.605108 -0.374768 54.794516 -0.369795 61.98399 -0.357616 C72.674564 -0.339558 83.365091 -0.338605 94.055678 -0.341242 C112.036402 -0.34519 130.017093 -0.335137 147.997807 -0.31719 C165.808871 -0.299458 183.619922 -0.287896 201.430996 -0.284632 C201.98408 -0.284529 201.98408 -0.284529 204.783018 -0.284007 C210.400356 -0.282992 216.017694 -0.282088 221.635032 -0.281226 C261.454451 -0.27492 301.273852 -0.254693 341.093262 -0.226318 C379.784667 -0.198779 418.476067 -0.177521 457.16748 -0.164795 C458.359474 -0.1644 459.551468 -0.164006 460.779582 -0.163599 C472.749736 -0.159644 484.71989 -0.155816 496.690044 -0.152083 C521.076068 -0.144473 545.462091 -0.13601 569.848114 -0.127029 C570.96942 -0.126618 572.090725 -0.126206 573.24601 -0.125781 C648.164014 -0.098165 723.082008 -0.050628 798 0 C796.674774 4.029901 795.241733 7.933803 793.566406 11.832031 C793.088083 12.947231 792.609761 14.062432 792.116943 15.211426 C791.603977 16.39978 791.091011 17.588135 790.5625 18.8125 C790.022769 20.067503 789.483139 21.32255 788.943604 22.577637 C785.040284 31.644978 781.065486 40.68003 777.074219 49.708984 C773.360802 58.130672 769.759927 66.597072 766.186279 75.078857 C761.392655 86.456008 756.524315 97.800616 751.653809 109.14502 C749.887467 113.260833 748.125269 117.378415 746.363281 121.496094 C740.205719 135.883694 734.034533 150.265143 727.8125 164.625 C727.544143 165.244616 727.275787 165.864232 726.999298 166.502625 C724.032708 173.350192 721.036925 180.183365 718 187 C699.573414 187.929661 681.172492 188.162992 662.727238 188.128571 C660.53474 188.124954 658.34225 188.123371 656.14975 188.122314 C632.090215 188.107917 608.04762 187.790584 584 187 C585.180502 180.657653 587.030085 175.028508 589.667969 169.152344 C590.02587 168.337379 590.383771 167.522415 590.752518 166.682755 C591.889886 164.097558 593.038386 161.517494 594.1875 158.9375 C594.938907 157.23536 595.689564 155.532888 596.439453 153.830078 C602.198352 140.76866 602.198352 140.76866 605.07666 134.398926 C605.713877 132.97559 606.351084 131.552251 606.988281 130.128906 C607.134033 129.810908 607.134033 129.810908 607.871628 128.201645 C609.610239 124.298891 610.273906 121.356566 611 117 C523.88 116.835 523.88 116.835 83 116 C82.505 117.485 82.505 117.485 80 125 C79.20212 126.947934 78.373063 128.883589 77.503906 130.800781 C77.034607 131.844116 76.565308 132.887451 76.081787 133.962402 C75.580422 135.067935 75.079058 136.173467 74.5625 137.3125 C73.469914 139.748068 72.37846 142.184102 71.289062 144.621094 C71.011808 145.24067 70.734554 145.860245 70.448898 146.498596 C63.927439 161.09501 57.744816 175.84213 51.546875 190.578125 C49.92744 194.427233 48.307634 198.276186 46.6875 202.125 C46.279401 203.094697 45.871302 204.064395 45.450836 205.063477 C39.827853 218.414888 34.093114 231.708802 28.204071 244.944855 C23.475061 255.577424 18.909159 266.268266 14.438843 277.011993 C10.413345 286.684293 6.265022 296.29513 2.018066 305.872559 C-1.661681 314.186358 -5.213582 322.550071 -8.739258 330.930176 C-12.227283 339.207783 -15.789403 347.451841 -19.375 355.6875 C-23.876492 366.027941 -28.284529 376.403487 -32.625 386.8125 C-36.412583 395.893852 -40.257332 404.943831 -44.25 413.9375 C-49.027991 424.703515 -53.652255 435.531046 -58.25 446.375 C-58.612791 447.230504 -58.975581 448.086009 -59.349365 448.967438 C-60.084193 450.700279 -60.819016 452.433124 -61.553833 454.16597 C-61.917631 455.023856 -62.281428 455.881742 -62.65625 456.765625 C-63.02037 457.624357 -63.38449 458.483089 -63.759644 459.367844 C-67.404934 467.961351 -71.072683 476.545156 -74.75 485.125 C-75.057361 485.842504 -75.364722 486.560009 -75.681396 487.299255 C-78.91299 494.841272 -82.157784 502.37721 -85.4375 509.898438 C-92.532252 526.174406 -99.392191 542.520396 -106 559 C-106.353606 559.811384 -106.707212 560.622769 -107.071533 561.45874 C-108 564 -108 564 -109 570 C36.2 570 181.4 570 331 570 C342.19151 545.378679 342.19151 545.378679 346.9375 533.8125 C352.483933 520.419613 358.275141 507.137779 364.125 493.875 C364.544499 492.920822 364.963998 491.966644 365.39621 490.983551 C366.596351 488.255599 367.801243 485.529801 369.007812 482.804688 C369.36667 481.988313 369.725528 481.171939 370.095261 480.330826 C373.707598 472.207806 373.707598 472.207806 376 469 C378.89839 468.03387 380.724646 467.873432 383.737549 467.870605 C384.715147 467.867494 385.692744 467.864382 386.699966 467.861176 C387.774798 467.863159 388.849629 467.865143 389.957031 467.867188 C391.095873 467.865868 392.234714 467.864549 393.408066 467.86319 C397.20957 467.861247 401.011003 467.867686 404.8125 467.875 C406.790898 467.876348 408.769296 467.877697 410.747694 467.879017 C443.5017 467.908938 476.251354 468.448351 509 469 C508.269219 473.889946 506.892337 478.053445 504.894531 482.554688 C504.736787 482.917367 504.736787 482.917367 503.938507 484.752747 C502.902849 487.129659 501.85771 489.502274 500.8125 491.875 C500.082799 493.545141 499.353722 495.215555 498.625244 496.88623 C496.773921 501.127754 494.91495 505.365871 493.053101 509.602783 C491.483092 513.176659 489.917192 516.75233 488.351562 520.328125 C488.066398 520.979379 487.781233 521.630632 487.487427 522.30162 C486.919771 523.59803 486.352144 524.894452 485.784546 526.190887 C484.930106 528.141882 484.074915 530.092546 483.219727 532.043213 C477.35565 545.4287 471.606593 558.863023 465.865372 572.301559 C463.596431 577.610657 461.317712 582.915493 459.035156 588.21875 C457.731281 591.249789 456.427899 594.281041 455.125 597.3125 C454.808706 598.048404 454.492413 598.784307 454.166534 599.542511 C450.019696 609.19875 445.926341 618.872398 442.05127 628.641846 C440.086824 633.543639 437.927986 638.33179 435.671875 643.105469 C431.949062 650.990759 428.577921 659.004247 425.25 667.0625 C424.402146 669.111843 423.55328 671.160746 422.701843 673.208603 C421.939817 675.041815 421.181215 676.876451 420.422852 678.711182 C419.953311 679.796492 419.48377 680.881802 419 682 C418.692881 683.110447 418.385762 684.220894 418.069336 685.36499 C416 688 416 688 413.609161 688.472298 C406.260958 688.932779 398.953588 689.135971 391.591267 689.10743 C390.395559 689.106896 389.199851 689.106361 387.96791 689.105811 C384.670374 689.103317 381.372884 689.096304 378.075361 689.087327 C374.479941 689.078676 370.884516 689.075977 367.289088 689.072505 C360.994966 689.065617 354.700858 689.05497 348.406746 689.04183 C339.047704 689.022309 329.68866 689.008647 320.329607 688.996168 C304.584428 688.97501 288.83926 688.949125 273.094093 688.920534 C257.507421 688.892246 241.920748 688.866067 226.334068 688.842695 C225.36445 688.84124 224.394833 688.839785 223.395832 688.838286 C218.471508 688.830907 213.547184 688.823566 208.622861 688.816239 C173.756054 688.764293 138.889256 688.707633 104.022461 688.648193 C70.152673 688.590464 36.282882 688.534875 2.413086 688.482178 C1.368825 688.480552 0.324564 688.478927 -0.751341 688.477252 C-11.238365 688.460929 -21.72539 688.44465 -32.212414 688.428403 C-53.575143 688.395305 -74.937871 688.361917 -96.300598 688.328354 C-97.282793 688.326811 -98.264988 688.325268 -99.276946 688.323679 C-164.851305 688.220645 -230.425654 688.110851 -296 688 C-295.525017 686.567586 -295.049387 685.135387 -294.573486 683.703278 C-294.30869 682.905698 -294.043893 682.108119 -293.771072 681.286371 C-290.460414 671.469661 -286.303935 662.037559 -282 652.625 C-277.332354 642.338197 -272.837508 631.992654 -268.5 621.5625 C-264.26471 611.381874 -259.965845 601.234146 -255.5625 591.125 C-250.982851 580.607763 -246.46753 570.065352 -242 559.5 C-236.977935 547.625861 -231.892311 535.781255 -226.753906 523.957031 C-223.143927 515.648769 -219.562089 507.328907 -216 499 C-211.922401 489.467534 -207.81654 479.94779 -203.6875 470.4375 C-198.603993 458.728539 -193.565008 447.000978 -188.543823 435.265167 C-184.467009 425.737705 -180.368489 416.220208 -176.23761 406.716064 C-171.651901 396.164281 -167.111666 385.594342 -162.625 375 C-162.059658 373.665606 -161.49431 372.331215 -160.928955 370.996826 C-160.011924 368.83209 -159.094948 366.66733 -158.178024 364.502548 C-157.118741 362.001674 -156.059374 359.500836 -155 357 C-154.583472 356.016586 -154.166943 355.033173 -153.737793 354.019958 C-132.629193 304.192038 -132.629193 304.192038 -122.402527 281.394653 C-117.588774 270.661299 -112.958631 259.865186 -108.445984 249.002014 C-104.280365 238.978403 -99.954062 229.035944 -95.518555 219.128418 C-85.695461 197.176416 -76.284294 175.040273 -66.8255 152.929626 C-64.072412 146.494218 -61.318255 140.059267 -58.5625 133.625 C-58.244766 132.883114 -57.927032 132.141229 -57.59967 131.376862 C-52.736426 120.024306 -47.838696 108.687197 -42.918701 97.359131 C-39.030596 88.401838 -35.18141 79.42825 -31.342377 70.449829 C-25.82683 57.551047 -20.253753 44.680948 -14.578125 31.851562 C-12.756402 27.72967 -10.95727 23.598695 -9.171875 19.460938 C-8.712727 18.397783 -8.253579 17.334629 -7.780518 16.239258 C-6.908092 14.216233 -6.038003 12.192199 -5.170654 10.166992 C-4.783049 9.268838 -4.395444 8.370684 -3.996094 7.445312 C-3.657634 6.656567 -3.319175 5.867822 -2.970459 5.055176 C-2 3 -2 3 0 0 Z " fill="#B22E0B" transform="translate(296,0)"/>
<path d="M0 0 C0.931984 0.000156 1.863968 0.000312 2.824195 0.000473 C3.897205 -0.001775 4.970215 -0.004022 6.07574 -0.006337 C6.673649 -0.005024 6.673649 -0.005024 9.699434 0.001623 C10.961803 0.000469 12.224172 -0.000684 13.524795 -0.001873 C17.060561 -0.004962 20.5963 -0.001751 24.132064 0.002405 C27.966624 0.005822 31.80118 0.003472 35.63574 0.001827 C42.36678 -0.000252 49.09781 0.001408 55.828849 0.005466 C65.837768 0.011483 75.846682 0.011803 85.855603 0.010924 C102.689502 0.009608 119.523397 0.01296 136.357295 0.018941 C153.033212 0.024851 169.709128 0.028706 186.385047 0.029794 C187.420579 0.029863 188.456111 0.029931 189.523023 0.030002 C194.781628 0.030341 200.040232 0.030642 205.298837 0.030929 C242.57872 0.033031 279.8586 0.039774 317.138482 0.049232 C353.363091 0.058411 389.5877 0.065497 425.81231 0.06974 C426.370274 0.069805 426.370274 0.069805 429.193911 0.070138 C440.400171 0.071457 451.606431 0.072732 462.812691 0.073977 C485.642637 0.076513 508.472583 0.079335 531.302529 0.082328 C532.352292 0.082465 533.402055 0.082603 534.483629 0.082744 C604.625824 0.09195 674.768017 0.107796 744.91021 0.124671 C744.439199 1.556699 743.966537 2.988184 743.493188 4.41944 C743.230153 5.216657 742.967118 6.013874 742.696112 6.835248 C741.683782 9.784282 740.48772 12.62359 739.230523 15.476234 C738.720699 16.640982 738.210874 17.805731 737.685601 19.005775 C737.417234 19.614464 737.148868 20.223153 736.872368 20.850288 C735.409933 24.168329 733.960571 27.492064 732.511773 30.816077 C732.212207 31.503002 731.912641 32.189926 731.603997 32.897666 C728.737531 39.488214 725.970342 46.118653 723.212914 52.755378 C718.792771 63.392928 714.235957 73.947074 709.47271 84.437171 C704.41613 95.575674 699.701986 106.821627 695.097649 118.153266 C690.286861 129.975637 685.155742 141.620755 679.833062 153.220618 C675.83837 161.945767 672.097501 170.744914 668.660943 179.705726 C668.499045 180.118387 668.499045 180.118387 667.679742 182.206702 C667.407508 182.920601 667.135274 183.6345 666.85479 184.370032 C665.91021 186.124671 665.91021 186.124671 662.91021 188.124671 C660.65082 188.374486 660.65082 188.374486 657.942158 188.374219 C657.425115 188.376594 657.425115 188.376594 654.808563 188.388615 C653.666571 188.383647 652.52458 188.378679 651.347982 188.37356 C650.134393 188.376167 648.920805 188.378775 647.670441 188.381461 C644.280573 188.386698 640.890926 188.382898 637.501076 188.375405 C633.820912 188.369455 630.140764 188.375059 626.460601 188.379226 C620.003028 188.384925 613.545491 188.383145 607.08792 188.37654 C597.484396 188.366745 587.880898 188.36835 578.277371 188.372291 C562.118351 188.378576 545.959345 188.375382 529.800326 188.366697 C513.779175 188.358088 497.75803 188.353176 481.736876 188.353364 C481.238943 188.353368 481.238943 188.353368 478.719098 188.353387 C474.676533 188.353428 470.633967 188.353494 466.591402 188.353593 C428.628895 188.3545 390.666398 188.344543 352.703894 188.329163 C319.002727 188.315561 285.301566 188.309301 251.600396 188.309974 C249.439521 188.310014 247.278646 188.310055 245.117772 188.310095 C244.583618 188.310105 244.583618 188.310105 241.880478 188.310157 C236.502354 188.310257 231.124231 188.310348 225.746107 188.310427 C225.215559 188.310435 225.215559 188.310435 222.530669 188.310478 C194.36014 188.310843 166.189612 188.306297 138.019084 188.3001 C137.517504 188.29999 137.517504 188.29999 134.979203 188.299433 C130.945448 188.298545 126.911692 188.297656 122.877937 188.296742 C108.871657 188.293588 94.865378 188.292073 80.859098 188.29163 C62.78849 188.291032 44.717889 188.287004 26.647284 188.277199 C17.100859 188.272108 7.554443 188.269667 -1.991983 188.271195 C-8.385891 188.271935 -14.77979 188.268985 -21.173695 188.263151 C-24.805869 188.259933 -28.438026 188.258177 -32.070201 188.260912 C-48.76954 188.27231 -65.41141 187.992572 -82.08979 187.124671 C-81.47897 183.211566 -80.75249 179.910865 -79.113227 176.300452 C-78.697424 175.372166 -78.281621 174.44388 -77.853217 173.487464 C-77.395036 172.480867 -76.936855 171.474271 -76.46479 170.437171 C-75.461736 168.197069 -74.460542 165.956134 -73.460883 163.714515 C-73.193871 163.117095 -72.926859 162.519675 -72.651756 161.904151 C-69.189922 154.140247 -65.86479 146.317594 -62.52729 138.499671 C-61.240145 135.487689 -59.952298 132.476007 -58.664008 129.464515 C-58.35409 128.739981 -58.044171 128.015448 -57.724861 127.268958 C-55.121923 121.188897 -52.48717 115.12301 -49.83979 109.062171 C-46.366293 101.106581 -42.962528 93.123481 -39.58979 85.124671 C-32.302019 67.846178 -24.785508 50.670283 -17.217231 33.513099 C-14.863033 28.172299 -12.523002 22.825898 -10.206977 17.468421 C-9.746137 16.403011 -9.285298 15.337601 -8.810493 14.239906 C-7.929496 12.200443 -7.050511 10.16011 -6.173774 8.118812 C-5.782544 7.213245 -5.391313 6.307679 -4.988227 5.374671 C-4.644531 4.575452 -4.300835 3.776234 -3.946723 2.952796 C-2.636323 0.157276 -2.636323 0.157276 0 0 Z " fill="#B22E0B" transform="translate(1157.0897897221148,-0.12467116490006447)"/>
<path d="M0 0 C246.51 0 493.02 0 747 0 C745.216902 5.349295 743.564017 10.260484 741.320312 15.351562 C740.810488 16.516311 740.300664 17.68106 739.775391 18.881104 C739.507024 19.489793 739.238657 20.098482 738.962158 20.725616 C737.499723 24.043658 736.050361 27.367393 734.601562 30.691406 C734.301996 31.378331 734.00243 32.065255 733.693787 32.772995 C730.827321 39.363543 728.060131 45.993981 725.302704 52.630707 C720.882561 63.268257 716.325746 73.822403 711.5625 84.3125 C706.50592 95.451003 701.791776 106.696955 697.187439 118.028595 C692.37665 129.850966 687.245532 141.496084 681.922852 153.095947 C677.928159 161.821095 674.187291 170.620243 670.750732 179.581055 C670.588834 179.993716 670.588834 179.993716 669.769531 182.082031 C669.497297 182.79593 669.225063 183.509829 668.94458 184.245361 C668 186 668 186 665 188 C662.74061 188.249815 662.74061 188.249815 660.031947 188.249548 C659.514904 188.251923 659.514904 188.251923 656.898353 188.263944 C655.756361 188.258976 654.614369 188.254008 653.437772 188.248889 C652.224183 188.251496 651.010595 188.254104 649.76023 188.25679 C646.370362 188.262027 642.980716 188.258227 639.590866 188.250734 C635.910702 188.244784 632.230554 188.250387 628.55039 188.254555 C622.092818 188.260254 615.635281 188.258474 609.17771 188.251869 C599.574186 188.242074 589.970688 188.243678 580.367161 188.247619 C564.20814 188.253905 548.049134 188.25071 531.890116 188.242025 C515.868964 188.233416 499.84782 188.228505 483.826666 188.228693 C483.328732 188.228697 483.328732 188.228697 480.808888 188.228716 C476.766322 188.228757 472.723757 188.228823 468.681192 188.228922 C430.718685 188.229829 392.756188 188.219872 354.793684 188.204492 C321.092516 188.19089 287.391356 188.18463 253.690186 188.185303 C251.529311 188.185343 249.368436 188.185384 247.207561 188.185424 C246.673408 188.185434 246.673408 188.185434 243.970268 188.185485 C238.592144 188.185586 233.21402 188.185677 227.835896 188.185756 C227.305349 188.185764 227.305349 188.185764 224.620458 188.185806 C196.449929 188.186172 168.279402 188.181626 140.108874 188.175429 C139.607293 188.175319 139.607293 188.175319 137.068993 188.174762 C133.035238 188.173873 129.001482 188.172985 124.967726 188.172071 C110.961447 188.168917 96.955167 188.167402 82.948887 188.166959 C64.87828 188.16636 46.807679 188.162333 28.737074 188.152528 C19.190649 188.147437 9.644233 188.144995 0.097807 188.146524 C-6.296101 188.147264 -12.69 188.144314 -19.083905 188.13848 C-22.716079 188.135262 -26.348236 188.133506 -29.980411 188.136241 C-46.67975 188.147638 -63.32162 187.867901 -80 187 C-79.336467 182.667986 -78.3683 179.125119 -76.566406 175.121094 C-76.082363 174.035059 -75.59832 172.949023 -75.099609 171.830078 C-74.592363 170.710527 -74.085117 169.590977 -73.5625 168.4375 C-72.563197 166.207302 -71.564478 163.976843 -70.566406 161.746094 C-70.122405 160.763103 -69.678403 159.780112 -69.220947 158.767334 C-68.08763 156.198618 -67.024977 153.613557 -66 151 C-65.67 151 -65.34 151 -65 151 C-65.485854 157.663141 -67.359697 162.922195 -70.0625 169 C-70.251025 169.435059 -70.251025 169.435059 -71.205078 171.636719 C-72.127593 173.762006 -73.059304 175.882714 -74 178 C-74.66 178 -75.32 178 -76 178 C-75.67 179.98 -75.34 181.96 -75 184 C120.36 184 315.72 184 517 184 C517.495 182.845 517.495 182.845 520 177 C520.66 177 521.32 177 522 177 C522.135996 176.65002 522.135996 176.65002 522.824219 174.878906 C524.06176 171.84878 525.421163 168.900056 526.8125 165.9375 C531.072284 156.738835 534.857873 147.393771 538.5 137.9375 C540.705072 132.217947 543.013583 126.598932 545.617188 121.046875 C547.88527 116.049405 549.96544 110.971639 552.05835 105.898682 C552.219523 105.511278 552.219523 105.511278 553.035156 103.550781 C553.317542 102.866692 553.599927 102.182603 553.890869 101.477783 C554.829771 99.38029 555.828828 97.346553 556.869873 95.299072 C559.11996 90.831765 561.095292 86.268078 563.046875 81.664062 C563.421771 80.785838 563.796666 79.907614 564.182922 79.002777 C565.374279 76.211171 566.562393 73.418202 567.75 70.625 C573.114324 58.022848 578.539331 45.454757 584.129639 32.951111 C586.23639 28.228354 588.307472 23.490023 590.375 18.75 C590.587051 18.267246 590.587051 18.267246 591.660156 15.824219 C592.068789 14.88707 592.477422 13.949922 592.898438 12.984375 C593.255991 12.166787 593.613545 11.349199 593.981934 10.506836 C595.11405 7.719169 596.048539 4.854382 597 2 C498.825 2.165 498.825 2.165 2 3 C-4 16 -4 16 -6 21 C-6.66 21 -7.32 21 -8 21 C-8.030937 21.381563 -8.030937 21.381563 -8.1875 23.3125 C-9.344878 28.565215 -11.67198 33.17215 -14 38 C-14.66 37.67 -15.32 37.34 -16 37 C-13.962251 30.421323 -11.430212 24.194762 -8.5625 17.9375 C-8.180293 17.09123 -7.798086 16.244961 -7.404297 15.373047 C-5.046072 10.180149 -2.554771 5.109543 0 0 Z " fill="#D55019" transform="translate(1155,0)"/>
<path d="M0 0 C0.851846 1.066055 1.674047 2.156318 2.46875 3.265625 C2.92395 3.849812 3.37915 4.433999 3.848145 5.035889 C5.248644 6.843635 6.609093 8.677054 7.96875 10.515625 C8.786012 11.581772 9.606215 12.645674 10.429688 13.707031 C12.065382 15.821789 13.690706 17.942146 15.308594 20.070312 C18.80013 24.629552 22.44978 29.059574 26.08374 33.505371 C29.575288 37.78322 33.012874 42.097111 36.40625 46.453125 C40.589492 51.818638 44.881983 57.086055 49.21875 62.328125 C53.279821 67.237326 57.31403 72.153484 61.195312 77.207031 C63.622105 80.366138 66.075158 83.504271 68.53125 86.640625 C68.978796 87.215144 69.426343 87.789663 69.887451 88.381592 C72.242729 91.388027 74.648563 94.335299 77.140381 97.22998 C77.406429 97.53935 77.406429 97.53935 78.752792 99.10495 C79.154058 99.570473 79.555324 100.035995 79.96875 100.515625 C80.10126 91.055523 80.23176 81.595395 80.359901 72.135233 C80.419504 67.739393 80.479721 63.343564 80.541504 58.947754 C80.612947 53.858424 80.682071 48.769066 80.75 43.679688 C80.761239 42.851135 80.772478 42.022583 80.784058 41.168922 C80.941575 29.388405 81.018504 17.612611 80.906372 5.830963 C80.900531 4.866291 80.89469 3.901619 80.888672 2.907715 C80.884462 2.491806 80.884462 2.491806 80.863159 0.387054 C80.96875 -1.484375 80.96875 -1.484375 81.96875 -2.484375 C99.78875 -2.484375 117.60875 -2.484375 135.96875 -2.484375 C135.96875 63.185625 135.96875 128.855625 135.96875 196.515625 C120.12875 196.515625 104.28875 196.515625 87.96875 196.515625 C80.45377 187.390292 73.000903 178.339394 65.738281 169.035156 C61.119698 163.140188 56.364635 157.354326 51.630371 151.552246 C37.139993 133.791633 22.754514 115.95143 8.783691 97.777832 C8.320097 97.174959 7.856503 96.572085 7.37886 95.950943 C6.242059 94.472579 5.105391 92.994112 3.96875 91.515625 C3.958443 92.816324 3.948135 94.117024 3.937515 95.457138 C3.839965 107.685992 3.737249 119.914793 3.629411 132.143561 C3.574132 138.43122 3.520704 144.718883 3.471436 151.006592 C3.423865 157.069044 3.371526 163.131437 3.315809 169.193819 C3.295352 171.512371 3.276645 173.830939 3.259676 176.149519 C3.235706 179.384814 3.205641 182.619996 3.174072 185.855225 C3.168317 186.824106 3.162561 187.792988 3.156631 188.791229 C3.151737 189.229453 3.151737 189.229453 3.126968 191.447128 C3.120516 192.213138 3.114063 192.979148 3.107415 193.768371 C2.96875 195.515625 2.96875 195.515625 1.96875 196.515625 C0.316836 196.61431 -1.339282 196.643613 -2.994141 196.64502 C-4.051937 196.648172 -5.109734 196.651324 -6.199585 196.654572 C-7.350597 196.652547 -8.501609 196.650523 -9.6875 196.648438 C-10.273802 196.648916 -10.273802 196.648916 -13.240845 196.651337 C-15.725831 196.652019 -18.210818 196.650163 -20.695801 196.645996 C-24.514689 196.640648 -28.333459 196.64594 -32.152344 196.652344 C-34.559896 196.651683 -36.967448 196.650402 -39.375 196.648438 C-39.950506 196.64945 -39.950506 196.64945 -42.862915 196.654572 C-43.920712 196.651419 -44.978508 196.648267 -46.068359 196.64502 C-46.536511 196.644622 -46.536511 196.644622 -48.90564 196.642609 C-51.03125 196.515625 -51.03125 196.515625 -52.03125 195.515625 C-52.129012 192.961053 -52.161201 190.43354 -52.151505 187.878525 C-52.152359 187.069127 -52.153213 186.259729 -52.154094 185.425804 C-52.155751 182.69262 -52.150223 179.959497 -52.144775 177.226318 C-52.144494 175.275457 -52.144651 173.324595 -52.145218 171.373734 C-52.145506 166.059903 -52.139608 160.746096 -52.132644 155.432271 C-52.126412 149.885558 -52.125807 144.338845 -52.124619 138.79213 C-52.121505 128.280699 -52.113291 117.769278 -52.103269 107.257852 C-52.09211 95.294334 -52.086598 83.330815 -52.081574 71.367292 C-52.071108 46.750064 -52.053508 22.132845 -52.03125 -2.484375 C-46.660374 -2.653389 -41.289331 -2.813783 -35.917969 -2.966553 C-34.094658 -3.019582 -32.271411 -3.074875 -30.448242 -3.132568 C-27.81199 -3.215583 -25.175606 -3.290173 -22.539062 -3.363281 C-21.737598 -3.390316 -20.936133 -3.417351 -20.110382 -3.445206 C-4.688356 -3.842518 -4.688356 -3.842518 0 0 Z " fill="#152C4A" transform="translate(922.03125,238.484375)"/>
<path d="M0 0 C17.263125 -0.0825 34.52625 -0.165 52.3125 -0.25 C57.725676 -0.286416 63.138853 -0.322832 68.716064 -0.360352 C75.422241 -0.378418 75.422241 -0.378418 78.580246 -0.381775 C80.745278 -0.387842 82.910298 -0.401751 85.075241 -0.422302 C104.034531 -0.592988 121.578833 1.0494 139 9 C139.929414 9.417656 140.858828 9.835312 141.816406 10.265625 C158.155794 18.35397 169.109088 32.80985 175.070312 49.789062 C180.54036 68.68141 179.353456 90.489743 170 108 C163.224174 119.190146 153.900249 128.417167 142 134 C142.619098 137.247884 143.742397 139.354112 145.667969 142.027344 C146.224441 142.808838 146.780913 143.590332 147.354248 144.395508 C147.959221 145.234365 148.564194 146.073223 149.1875 146.9375 C154.91623 154.993319 160.477554 163.138797 165.929199 171.384277 C168.675636 175.531623 171.441071 179.659814 174.289062 183.738281 C174.800579 184.471436 175.312095 185.20459 175.839111 185.959961 C176.792026 187.319779 177.749879 188.676156 178.713623 190.02832 C180.800419 193.006831 182.262023 195.444907 183 199 C133.060324 205.972488 133.060324 205.972488 119.013428 197.117249 C107.880655 187.501999 101.18776 173.327054 95.375244 160.060791 C93.098523 155.050717 90.809885 150.040288 87 146 C83.564941 144.886475 83.564941 144.886475 79.851562 144.902344 C78.648384 144.884216 77.445205 144.866089 76.205566 144.847412 C75.449773 144.862277 75.449773 144.862277 71.625 144.9375 C69.211875 144.947813 69.211875 144.947813 57 145 C57 162.82 57 180.64 57 199 C38.19 199 19.38 199 0 199 C0 133.33 0 67.66 0 0 Z M57 44 C57 62.48 57 80.96 57 100 C60.207187 100.030937 60.207187 100.030937 76.4375 100.1875 C78.443845 100.214812 80.45019 100.242124 82.517334 100.270264 C84.135248 100.279038 85.753168 100.28668 87.371094 100.292969 C88.188722 100.308317 89.00635 100.323665 89.848755 100.339478 C98.66138 100.343417 107.18369 97.74475 114 92 C119.64506 85.323355 121.269031 78.194572 120.9375 69.625 C120.19132 62.389569 118.450483 56.270337 113.054688 51.15625 C101.722834 42.870594 88.660982 43.618961 75.3125 43.8125 C69.269375 43.874375 63.22625 43.93625 57 44 Z " fill="#162C4A" transform="translate(1252,489)"/>
<path d="M0 0 C0.878567 -0.00571 1.757133 -0.01142 2.662323 -0.017303 C3.148222 -0.017862 3.148222 -0.017862 5.607162 -0.020691 C6.116201 -0.023173 6.116201 -0.023173 8.692245 -0.035736 C12.083732 -0.050418 15.475171 -0.057174 18.866684 -0.062683 C21.225891 -0.068435 23.585098 -0.074193 25.944305 -0.079956 C30.908587 -0.090487 35.872852 -0.096314 40.837143 -0.099792 C47.161453 -0.105242 53.485543 -0.129183 59.809785 -0.157764 C64.694098 -0.176517 69.57836 -0.181603 74.462706 -0.183128 C76.791215 -0.186134 79.119724 -0.19409 81.448198 -0.207314 C99.365705 -0.301696 115.334526 0.640219 131.925278 8.140442 C132.391918 8.349915 132.391918 8.349915 134.753403 9.409973 C142.70491 13.351649 148.70174 18.935209 154.925278 25.140442 C155.533715 25.725676 156.142153 26.310911 156.769028 26.913879 C169.253272 39.995773 172.557097 58.970945 172.395981 76.289612 C171.808134 96.071605 164.090431 111.596866 149.784653 125.171692 C139.82782 134.140442 139.82782 134.140442 135.925278 134.140442 C139.464808 140.874927 143.525725 147.066224 147.925278 153.265442 C149.333132 155.270827 150.739284 157.277408 152.144028 159.284973 C152.516607 159.81719 152.889186 160.349406 153.273056 160.897751 C157.89654 167.512868 162.452907 174.173728 166.991684 180.847168 C167.946918 182.25029 168.903949 183.652189 169.862778 185.052856 C171.211059 187.023021 172.553311 188.997156 173.894028 190.972473 C174.098324 191.269871 174.098324 191.269871 175.132187 192.774887 C177.925278 196.911862 177.925278 196.911862 177.925278 199.140442 C170.180849 199.536821 162.438848 199.837558 154.686787 200.021249 C151.085036 200.109499 147.490282 200.228739 143.892563 200.422913 C120.748756 201.639557 120.748756 201.639557 114.488815 197.547913 C110.613462 193.701583 108.20839 189.322112 106.000381 184.372192 C104.197101 180.628859 101.732113 177.369316 99.300278 174.015442 C98.398015 172.708178 97.499088 171.398599 96.604965 170.085754 C96.165073 169.440256 95.72518 168.794758 95.271957 168.1297 C92.549409 164.108067 89.860206 160.064011 87.184555 156.011047 C85.565902 153.565097 83.942102 151.162136 82.144028 148.843567 C80.925278 147.140442 80.925278 147.140442 80.925278 145.140442 C71.025278 145.140442 61.125278 145.140442 50.925278 145.140442 C50.925278 162.960442 50.925278 180.780442 50.925278 199.140442 C32.775278 199.140442 14.625278 199.140442 -4.074722 199.140442 C-4.963298 194.697562 -5.215304 190.703634 -5.201706 186.218872 C-5.203266 185.42718 -5.204826 184.635488 -5.206433 183.819805 C-5.210418 181.17048 -5.207263 178.521213 -5.204117 175.871887 C-5.205472 173.971318 -5.207253 172.070749 -5.209427 170.170181 C-5.213987 165.011477 -5.212218 159.852793 -5.209048 154.694089 C-5.206518 149.301348 -5.208863 143.90861 -5.210434 138.515869 C-5.212253 129.463803 -5.209855 120.411745 -5.205093 111.35968 C-5.199645 100.87987 -5.201419 90.40008 -5.20692 79.92027 C-5.21145 70.931691 -5.212102 61.943119 -5.209481 52.954539 C-5.207919 47.581742 -5.207724 42.208955 -5.211018 36.836159 C-5.213895 31.78995 -5.211923 26.743767 -5.206123 21.697561 C-5.204795 19.840311 -5.205191 17.98306 -5.207386 16.125811 C-5.210096 13.60187 -5.206719 11.078012 -5.201706 8.554077 C-5.203937 7.809448 -5.206167 7.064818 -5.208466 6.297624 C-5.184076 0.020096 -5.184076 0.020096 0 0 Z M50.925278 44.140442 C50.925278 62.620442 50.925278 81.100442 50.925278 100.140442 C57.814028 100.222942 64.702778 100.305442 71.800278 100.390442 C73.95414 100.426858 76.108002 100.463274 78.327133 100.500793 C80.065567 100.512494 81.804012 100.522682 83.542465 100.531067 C83.981109 100.541299 83.981109 100.541299 86.200912 100.593079 C93.950275 100.597375 100.756407 98.758205 106.800278 93.765442 C113.546582 85.431772 115.935678 77.774486 114.925278 67.140442 C113.645573 59.614256 109.788938 53.96877 103.925278 49.140442 C92.428855 42.911783 78.967761 44.004932 66.300278 44.077942 C61.226528 44.098567 56.152778 44.119192 50.925278 44.140442 Z " fill="#162D4B" transform="translate(1582.074722290039,235.85955810546875)"/>
<path d="M0 0 C18.48 0 36.96 0 56 0 C56 24.09 56 48.18 56 73 C80.75 73 105.5 73 131 73 C131 48.91 131 24.82 131 0 C149.48 0 167.96 0 187 0 C187 65.67 187 131.34 187 199 C168.85 199 150.7 199 132 199 C130.314963 197.314963 130.88034 195.237401 130.87558 192.989059 C130.879175 192.272648 130.88277 191.556236 130.886475 190.818115 C130.886329 190.066944 130.886183 189.315773 130.886032 188.54184 C130.886731 186.047395 130.894524 183.553025 130.902344 181.058594 C130.904208 179.333664 130.905632 177.608734 130.906631 175.883804 C130.910457 171.334875 130.920288 166.785977 130.931335 162.237061 C130.943343 156.783884 130.947952 151.330696 130.953789 145.87751 C130.963499 137.584985 130.982656 129.292529 131 121 C106.25 121 81.5 121 56 121 C56.011602 126.546836 56.023203 132.093672 56.035156 137.808594 C56.040263 141.313152 56.045077 144.817706 56.048828 148.322266 C56.054816 153.89039 56.061916 159.458499 56.075439 165.026611 C56.086269 169.513445 56.092277 174.000262 56.094877 178.487108 C56.096731 180.202803 56.100352 181.918497 56.10573 183.634184 C56.112941 186.028849 56.113991 188.423441 56.113525 190.818115 C56.117121 191.534527 56.120716 192.250938 56.12442 192.989059 C56.114052 197.885948 56.114052 197.885948 55 199 C53.317448 199.098752 51.63076 199.127989 49.945312 199.129395 C49.406404 199.130971 49.406404 199.130971 46.679199 199.138947 C45.506313 199.136922 44.333428 199.134898 43.125 199.132812 C41.9302 199.133769 40.7354 199.134726 39.504395 199.135712 C36.97233 199.136394 34.440264 199.134538 31.908203 199.130371 C28.016887 199.125023 24.125687 199.130315 20.234375 199.136719 C17.78125 199.136058 15.328125 199.134777 12.875 199.132812 C11.702114 199.134837 10.529229 199.136861 9.320801 199.138947 C8.242983 199.135794 7.165166 199.132642 6.054688 199.129395 C5.10062 199.128599 4.146553 199.127803 3.163574 199.126984 C1 199 1 199 0 198 C-0.097762 195.445428 -0.129951 192.917915 -0.120255 190.3629 C-0.121109 189.553502 -0.121963 188.744104 -0.122844 187.910179 C-0.124501 185.176995 -0.118973 182.443872 -0.113525 179.710693 C-0.113244 177.759832 -0.113401 175.80897 -0.113968 173.858109 C-0.114256 168.544278 -0.108358 163.230471 -0.101394 157.916646 C-0.095162 152.369933 -0.094557 146.82322 -0.093369 141.276505 C-0.090255 130.765074 -0.082041 120.253653 -0.072019 109.742227 C-0.06086 97.778709 -0.055348 85.81519 -0.050324 73.851667 C-0.039858 49.234438 -0.021512 24.617222 0 0 Z " fill="#172E4B" transform="translate(553,236)"/>
<path d="M0 0 C17.82 0 35.64 0 54 0 C55.149272 26.433256 55.149272 26.433256 55.097656 37.496094 C55.096241 38.706528 55.094826 39.916963 55.093369 41.164078 C55.087899 44.921914 55.075375 48.679683 55.0625 52.4375 C55.057468 55.030598 55.052908 57.623697 55.048828 60.216797 C55.037973 66.477886 55.021373 72.738938 55 79 C55.788423 78.210852 56.576846 77.421704 57.38916 76.608643 C58.844986 75.154042 60.303729 73.702292 61.773438 72.261719 C65.396203 68.700805 68.799587 65.013707 72.117188 61.167969 C74.215753 58.75157 76.354397 56.37471 78.5 54 C81.170483 51.041302 83.822981 48.070735 86.4375 45.0625 C90.09058 40.866968 93.845055 36.766264 97.59375 32.65625 C99.58649 30.456473 101.553381 28.240448 103.5 26 C107.120378 21.83315 110.845847 17.764825 114.566406 13.6875 C117.261148 10.711605 119.905713 7.696569 122.527344 4.65625 C123.01332 4.109688 123.499297 3.563125 124 3 C124.402857 2.477864 124.805714 1.955728 125.220779 1.41777 C127.790253 -0.629712 129.683329 -0.360722 132.940186 -0.340576 C134.161225 -0.34035 135.382264 -0.340123 136.640305 -0.33989 C137.299713 -0.332148 137.299713 -0.332148 140.636719 -0.292969 C142.000061 -0.287372 143.36341 -0.283102 144.726761 -0.280106 C148.312436 -0.268659 151.897746 -0.239195 155.483276 -0.205994 C159.143097 -0.175287 162.802978 -0.161599 166.462891 -0.146484 C173.642094 -0.114324 180.820996 -0.063132 188 0 C186.114791 4.078678 183.382354 7.022837 180.3125 10.25 C179.217987 11.417254 178.124233 12.585219 177.03125 13.753906 C176.505312 14.31481 175.979375 14.875713 175.4375 15.453613 C173.12685 17.939289 170.907226 20.499848 168.6875 23.066406 C166.756928 25.278521 164.785761 27.450889 162.8125 29.625 C158.626081 34.259964 154.567945 38.994791 150.519531 43.749756 C147.350194 47.459916 144.116765 51.095908 140.8125 54.6875 C136.794181 59.064712 133.033405 63.598251 129.304688 68.222656 C126.056314 72.137221 122.624112 75.860679 119.164062 79.589844 C118.449922 80.385195 117.735781 81.180547 117 82 C116.388984 82.661289 115.777969 83.322578 115.148438 84.003906 C114 86 114 86 113.949219 88.234375 C115.537774 92.415404 118.135583 95.69413 120.8125 99.25 C122.008745 100.870406 123.204037 102.491516 124.398438 104.113281 C125.003975 104.931353 125.609512 105.749424 126.233398 106.592285 C128.857369 110.168515 131.396936 113.801806 133.9375 117.4375 C138.764725 124.313293 143.71913 131.088328 148.716309 137.841309 C154.333693 145.435667 159.864351 153.090581 165.382324 160.757324 C167.022094 163.03063 168.668313 165.299129 170.316406 167.566406 C175.714617 174.99807 181.072234 182.455868 186.3125 190 C186.787036 190.676919 187.261572 191.353838 187.750488 192.05127 C191 196.765075 191 196.765075 191 199 C181.669165 199.418513 172.336447 199.739719 163 200 C162.265396 200.021229 161.530791 200.042458 160.773926 200.064331 C156.267977 200.191228 151.762984 200.285948 147.255585 200.342041 C145.79882 200.363934 144.342161 200.394633 142.885773 200.434326 C140.830934 200.48827 138.778106 200.509719 136.722656 200.523438 C135.544534 200.543257 134.366411 200.563076 133.152588 200.583496 C129.039735 199.822269 127.657208 198.151639 125 195 C124.522483 194.457788 124.044966 193.915576 123.552979 193.356934 C123.165535 192.87563 122.778091 192.394326 122.378906 191.898438 C122.152434 191.617261 122.152434 191.617261 121.006348 190.194336 C120.529878 189.593955 120.053408 188.993574 119.5625 188.375 C119.047358 187.728213 118.532217 187.081426 118.001465 186.415039 C112.073291 178.912055 106.438984 171.194354 100.804199 163.470215 C96.082043 157.004886 91.322619 150.566881 86.565918 144.126953 C85.100584 142.136621 83.644701 140.139755 82.191406 138.140625 C81.37776 137.031136 80.56397 135.921752 79.75 134.8125 C79.064219 133.870195 78.378438 132.927891 77.671875 131.957031 C77.120156 131.311211 76.568438 130.665391 76 130 C74 130 74 130 72.567139 131.281738 C72.022913 131.871968 71.478687 132.462197 70.917969 133.070312 C70.315332 133.72 69.712695 134.369687 69.091797 135.039062 C68.463379 135.727422 67.834961 136.415781 67.1875 137.125 C66.570684 137.790156 65.953867 138.455312 65.318359 139.140625 C63.528745 141.080483 61.748973 143.023349 60 145 C59.556281 145.423175 59.556281 145.423175 57.310791 147.564697 C53.806732 151.823742 54.393434 156.562627 54.546875 161.832031 C54.556321 162.864384 54.565768 163.896737 54.5755 164.960373 C54.610002 168.245228 54.678818 171.528254 54.75 174.8125 C54.799886 178.11435 54.842786 181.416188 54.881653 184.718185 C54.908163 186.770478 54.942443 188.822688 54.985046 190.87471 C55.00126 191.796244 55.017474 192.717777 55.03418 193.667236 C55.042831 194.074552 55.042831 194.074552 55.086609 196.135818 C55 198 55 198 54 199 C52.31198 199.093532 50.620048 199.117448 48.929443 199.113525 C47.848398 199.11345 46.767353 199.113374 45.653549 199.113297 C45.065538 199.110716 45.065538 199.110716 42.089844 199.097656 C40.892672 199.096241 39.695501 199.094826 38.462051 199.093369 C34.620509 199.08775 30.779025 199.075194 26.9375 199.0625 C24.340496 199.057487 21.74349 199.052924 19.146484 199.048828 C12.764303 199.037774 6.382156 199.021018 0 199 C-1.574055 195.85189 -1.130788 192.485209 -1.115234 189.029297 C-1.115209 188.179684 -1.115184 187.330071 -1.115158 186.454712 C-1.113301 183.542692 -1.10365 180.630753 -1.09375 177.71875 C-1.089929 175.599976 -1.086315 173.481201 -1.082886 171.362427 C-1.017996 140.634884 -0.774135 109.907522 -0.554619 79.180785 C-0.492805 70.519727 -0.43297 61.858655 -0.373242 53.197581 C-0.250916 35.465039 -0.126029 17.732516 0 0 Z " fill="#162D4B" transform="translate(2204,236)"/>
<path d="M0 0 C19.14 0 38.28 0 58 0 C58.917813 2.072812 58.917813 2.072812 63.5625 12.5625 C70.13827 27.382976 70.13827 27.382976 73.4375 34.375 C77.010811 41.952141 80.420026 49.601403 83.837708 57.249664 C87.981354 66.520623 92.163951 75.772878 96.377563 85.012238 C102.235891 97.859215 108.0129 110.739742 113.729828 123.650238 C120.2455 138.360475 126.871326 153.019885 133.530273 167.665771 C136.910397 175.10609 140.283749 182.549961 143.554688 190.039062 C144.031479 191.126548 144.508271 192.214033 144.999512 193.334473 C146 196 146 196 146 199 C126.53 199 107.06 199 87 199 C84.916875 194.194375 82.83375 189.38875 80.6875 184.4375 C80.036121 182.935017 79.384741 181.432534 78.713623 179.884521 C78.453434 179.284181 78.453434 179.284181 77.136719 176.246094 C77.004046 175.940123 77.004046 175.940123 76.332642 174.391724 C74.544594 170.265524 72.77147 166.13343 71 162 C42.95 162 14.9 162 -14 162 C-18.29 172.23 -22.58 182.46 -27 193 C-27.99 194.98 -28.98 196.96 -30 199 C-48.81 199 -67.62 199 -87 199 C-83.623686 187.745619 -83.623686 187.745619 -81.320312 182.480469 C-80.81073 181.309194 -80.301147 180.13792 -79.776123 178.931152 C-79.225968 177.683171 -78.675588 176.43529 -78.125 175.1875 C-77.543686 173.859036 -76.96272 172.530419 -76.38208 171.20166 C-71.741226 160.602163 -67.013539 150.041242 -62.264511 139.489838 C-58.211441 130.484527 -54.195254 121.463059 -50.1875 112.4375 C-49.854116 111.686792 -49.520732 110.936085 -49.177246 110.162628 C-47.817906 107.101614 -46.458638 104.040568 -45.099609 100.979416 C-42.672953 95.513863 -40.243405 90.049602 -37.8125 84.585938 C-31.87269 71.234043 -25.936524 57.881002 -20.0625 44.5 C-16.800168 37.070003 -13.516183 29.650534 -10.1875 22.25 C-10.018995 21.875205 -10.018995 21.875205 -9.16626 19.978516 C-6.152923 13.298917 -3.071135 6.654126 0 0 Z M28 56 C24.31974 64.994486 20.655277 73.99534 17 83 C16.723214 83.68135 16.446428 84.3627 16.161255 85.064697 C14.493354 89.171599 12.830669 93.280552 11.174683 97.392273 C10.643741 98.708686 10.111282 100.024489 9.577271 101.339661 C8.825996 103.190902 8.080846 105.044625 7.335938 106.898438 C6.908452 107.957241 6.480967 109.016045 6.040527 110.106934 C5 113 5 113 4 118 C20.17 118 36.34 118 53 118 C49.624846 106.749487 49.624846 106.749487 48.054688 102.844971 C47.704224 101.967386 47.35376 101.089801 46.992676 100.185623 C46.623843 99.274875 46.25501 98.364128 45.875 97.425781 C45.486831 96.45771 45.098662 95.48964 44.69873 94.492233 C43.469876 91.430674 42.234948 88.371606 41 85.3125 C40.171494 83.249502 39.343366 81.186352 38.515625 79.123047 C32.057761 63.050039 32.057761 63.050039 29 56 C28.67 56 28.34 56 28 56 Z " fill="#162D4B" transform="translate(1160,236)"/>
<path d="M0 0 C0.565712 -0.008031 0.565712 -0.008031 3.428558 -0.048676 C8.607466 -0.092906 13.786283 -0.134633 18.965332 -0.157227 C22.381147 -0.17388 25.795997 -0.218656 29.211447 -0.269598 C32.465887 -0.311315 35.720433 -0.318404 38.975098 -0.330566 C40.203282 -0.353236 41.431467 -0.375905 42.696869 -0.399261 C43.265733 -0.397836 43.265733 -0.397836 46.144531 -0.390625 C46.645992 -0.394668 46.645992 -0.394668 49.183685 -0.415131 C51.70166 0.192871 51.70166 0.192871 53.452332 2.527908 C53.86461 3.407346 54.276888 4.286784 54.70166 5.192871 C54.956814 5.72465 54.956814 5.72465 56.248047 8.415771 C56.787036 9.611941 57.326025 10.80811 57.881348 12.040527 C58.175989 12.69307 58.47063 13.345612 58.7742 14.017929 C59.395859 15.396463 60.01602 16.775673 60.634766 18.155518 C61.563602 20.22626 62.497444 22.294685 63.432129 24.362793 C66.105702 30.294276 68.742158 36.23045 71.209473 42.251465 C73.589925 48.03117 76.227082 53.678674 78.889648 59.331543 C80.65856 63.089223 82.387971 66.863919 84.104004 70.645996 C84.245871 70.958564 84.245871 70.958564 84.963806 72.540344 C85.551095 73.835172 86.138127 75.130116 86.724915 76.425171 C88.346889 80.004798 89.97144 83.583254 91.596191 87.161621 C91.932737 87.902892 92.269283 88.644164 92.616028 89.407898 C94.993876 94.642334 97.381797 99.872091 99.775879 105.099121 C99.943354 105.464784 99.943354 105.464784 100.790878 107.315262 C101.465844 108.788846 102.140827 110.262423 102.815826 111.735992 C108.614627 124.396085 114.354487 137.080083 120.032227 149.794922 C124.62023 160.052233 129.317567 170.257207 134.04541 180.450684 C134.483691 181.398467 134.921973 182.34625 135.373535 183.322754 C136.29707 185.31854 137.224437 187.312556 138.154785 189.305176 C138.613691 190.296787 139.072598 191.288398 139.54541 192.310059 C139.959844 193.20064 140.374277 194.091221 140.80127 195.008789 C141.70166 197.192871 141.70166 197.192871 141.70166 199.192871 C121.90166 199.192871 102.10166 199.192871 81.70166 199.192871 C76.221694 186.588949 70.805937 173.953563 65.70166 161.192871 C37.65166 161.192871 9.60166 161.192871 -19.29834 161.192871 C-23.91834 172.412871 -28.53834 183.632871 -33.29834 195.192871 C-33.95834 196.512871 -34.61834 197.832871 -35.29834 199.192871 C-54.43834 199.192871 -73.57834 199.192871 -93.29834 199.192871 C-89.939849 187.997903 -89.939849 187.997903 -87.17334 182.317871 C-86.546971 181.011235 -85.922044 179.703906 -85.29834 178.395996 C-84.970918 177.712148 -84.643496 177.028301 -84.306152 176.32373 C-82.54282 172.595445 -80.859624 168.831483 -79.17334 165.067871 C-78.800076 164.235942 -78.426812 163.404014 -78.042236 162.546875 C-77.232485 160.741239 -76.423179 158.935403 -75.614258 157.129395 C-74.210129 153.996025 -72.803218 150.863915 -71.395996 147.731934 C-63.600211 130.37255 -55.862715 112.987538 -48.141357 95.59494 C-46.143692 91.095401 -44.143921 86.596809 -42.14209 82.099121 C-36.996046 70.535689 -31.86948 58.963882 -26.763763 47.382599 C-24.249246 41.67929 -21.733059 35.976717 -19.216675 30.274231 C-18.605625 28.889318 -17.994704 27.50435 -17.383911 26.119324 C-15.400381 21.621528 -13.412841 17.125529 -11.42334 12.630371 C-10.917383 11.482461 -10.411426 10.334551 -9.890137 9.151855 C-9.429297 8.112227 -8.968457 7.072598 -8.493652 6.001465 C-8.091626 5.091951 -7.6896 4.182437 -7.275391 3.245361 C-5.48729 -0.5109 -4.04154 0.051907 0 0 Z M22.70166 57.192871 C7.953768 92.322321 7.953768 92.322321 2.26416 106.817871 C1.893635 107.757034 1.52311 108.696196 1.141357 109.663818 C0.811921 110.511296 0.482485 111.358774 0.143066 112.231934 C-0.138513 112.955903 -0.420093 113.679873 -0.710205 114.425781 C-1.29834 116.192871 -1.29834 116.192871 -1.29834 118.192871 C14.87166 118.192871 31.04166 118.192871 47.70166 118.192871 C44.577678 109.445722 41.428651 100.792778 37.95166 92.192871 C37.52772 91.138499 37.103779 90.084126 36.666992 88.997803 C32.389885 78.377985 28.056678 67.780948 23.70166 57.192871 C23.37166 57.192871 23.04166 57.192871 22.70166 57.192871 Z " fill="#162C4A" transform="translate(1095.29833984375,488.80712890625)"/>
<path d="M0 0 C18.15 0 36.3 0 55 0 C55.720545 3.602727 56.121416 6.199461 56.100067 9.752289 C56.098587 10.216079 56.098587 10.216079 56.091095 12.563141 C56.082787 13.568882 56.074478 14.574622 56.065918 15.61084 C56.061245 16.679875 56.056572 17.748911 56.051758 18.850342 C56.041262 21.170943 56.028602 23.491535 56.014034 25.812115 C55.991975 29.496378 55.977917 33.180589 55.966339 36.864899 C55.932795 47.340506 55.891434 57.816028 55.828613 68.291504 C55.790737 74.703383 55.76787 81.115174 55.754307 87.527149 C55.746304 89.959769 55.732769 92.392377 55.713375 94.824932 C55.421484 132.113261 55.421484 132.113261 65.5625 143.800781 C75.415642 152.992486 87.174764 153.562168 99.906738 153.131836 C107.422108 152.65851 113.712095 149.287905 119 144 C126.77737 133.97036 128.448382 122.849184 128.432373 110.460205 C128.442565 109.25891 128.452756 108.057614 128.463257 106.819916 C128.488075 103.562342 128.500075 100.30504 128.506111 97.047388 C128.515563 93.629398 128.541771 90.211535 128.566116 86.793625 C128.609599 80.337686 128.638257 73.881772 128.66144 67.425731 C128.68859 60.068831 128.732495 52.71206 128.777728 45.355253 C128.870313 30.236905 128.942113 15.118524 129 0 C136.672112 -0.025266 144.344213 -0.042831 152.016357 -0.054932 C154.628666 -0.059974 157.240972 -0.066807 159.853271 -0.075439 C163.598803 -0.08751 167.344297 -0.093229 171.089844 -0.097656 C172.265867 -0.102818 173.441889 -0.107979 174.653549 -0.113297 C175.734594 -0.113372 176.815639 -0.113448 177.929443 -0.113525 C178.886527 -0.115746 179.843611 -0.117967 180.829697 -0.120255 C183 0 183 0 184 1 C184.10234 2.525965 184.135193 4.056645 184.140442 5.586029 C184.146152 6.578058 184.151862 7.570088 184.157745 8.592178 C184.158304 9.141175 184.158304 9.141175 184.161133 11.919434 C184.166098 13.069242 184.171063 14.219051 184.176178 15.403702 C184.190864 19.235286 184.197617 23.066829 184.203125 26.898438 C184.207423 28.890405 184.211722 30.882372 184.2161 32.87434 C184.227934 38.440722 184.235454 44.007093 184.238895 49.573487 C184.243344 56.731395 184.260735 63.889109 184.289895 71.046958 C184.311708 76.597976 184.32161 82.148941 184.322936 87.700001 C184.323973 91.004416 184.331132 94.30861 184.347755 97.612988 C184.488396 127.756362 182.008459 156.34488 159.945312 179.121094 C139.021087 198.780668 112.312323 202.810025 84.710938 202.285156 C58.495104 201.409341 36.533879 191.599668 18.722656 172.566406 C-0.528431 150.063696 -0.30859 121.715105 -0.195312 93.847656 C-0.190453 91.133826 -0.188634 88.419995 -0.186737 85.706161 C-0.180565 79.331753 -0.164213 72.957415 -0.144038 66.583038 C-0.11933 58.600294 -0.108507 50.617538 -0.097656 42.634766 C-0.078278 28.423123 -0.038198 14.211632 0 0 Z " fill="#172D4B" transform="translate(1781,236)"/>
<path d="M0 0 C13.849059 -0.116585 27.697998 -0.205063 41.54745 -0.259061 C47.980461 -0.284996 54.413132 -0.320096 60.845947 -0.377197 C67.070578 -0.432096 73.294885 -0.461541 79.519739 -0.474386 C81.877649 -0.483523 84.235544 -0.501361 86.593313 -0.52865 C113.671765 -0.829188 138.716632 4.034352 159.167969 23.011719 C173.411919 37.916897 177.641186 55.315135 177.470947 75.43335 C176.96957 93.734293 170.822795 109.178301 157.894531 122.273438 C148.447192 131.17255 138.13699 136.906597 125.8125 140.6875 C125.166519 140.890125 124.520537 141.092749 123.85498 141.301514 C109.009041 145.596194 93.854267 145.250831 78.5625 145.125 C71.446875 145.08375 64.33125 145.0425 57 145 C57 162.82 57 180.64 57 199 C49.722415 199.020946 42.444939 199.040984 35.167351 199.05175 C31.778628 199.05704 28.389929 199.064113 25.001221 199.075439 C21.116702 199.088343 17.232194 199.093229 13.347656 199.097656 C12.127886 199.102818 10.908116 199.107979 9.651382 199.113297 C9.090839 199.113334 9.090839 199.113334 6.25415 199.113525 C5.261537 199.115746 4.268924 199.117967 3.246231 199.120255 C1 199 1 199 0 198 C-0.097762 195.445428 -0.129951 192.917915 -0.120255 190.3629 C-0.121109 189.553502 -0.121963 188.744104 -0.122844 187.910179 C-0.124501 185.176995 -0.118973 182.443872 -0.113525 179.710693 C-0.113244 177.759832 -0.113401 175.80897 -0.113968 173.858109 C-0.114256 168.544278 -0.108358 163.230471 -0.101394 157.916646 C-0.095162 152.369933 -0.094557 146.82322 -0.093369 141.276505 C-0.090255 130.765074 -0.082041 120.253653 -0.072019 109.742227 C-0.06086 97.778709 -0.055348 85.81519 -0.050324 73.851667 C-0.039858 49.234439 -0.022258 24.61722 0 0 Z M57 44 C57 62.15 57 80.3 57 99 C63.72375 99.0825 70.4475 99.165 77.375 99.25 C78.425828 99.268208 78.425828 99.268208 83.743652 99.360352 C85.44107 99.372052 87.1385 99.382241 88.835938 99.390625 C89.263785 99.400857 89.263785 99.400857 91.428955 99.452637 C99.326092 99.45712 105.689349 97.123814 112.3125 92.875 C119.05894 85.657878 120.705126 78.767523 120.519043 69.122559 C120.111013 60.93451 118.056565 56.714678 112.1875 51.1875 C104.264136 44.734148 96.023508 43.838073 86.101562 43.902344 C85.360593 43.903351 84.619624 43.904358 83.856201 43.905396 C81.112451 43.910591 78.368724 43.924553 75.625 43.9375 C69.47875 43.958125 63.3325 43.97875 57 44 Z " fill="#172D4B" transform="translate(835,489)"/>
<path d="M0 0 C0.398099 0.000911 0.398099 0.000911 2.41272 0.005524 C13.957294 0.050069 25.083333 0.393854 36.3125 3.3125 C36.643628 3.398303 36.643628 3.398303 38.319336 3.83252 C46.163005 5.925287 53.707188 8.733033 61.1875 11.875 C61.872153 12.155693 62.556807 12.436387 63.262207 12.725586 C67.94834 14.780468 67.94834 14.780468 69.584915 17.171478 C70.489213 19.832504 70.166033 20.753473 69.08667 23.314941 C68.928042 23.701967 68.928042 23.701967 68.12529 25.660553 C67.946707 26.073632 67.946707 26.073632 67.042969 28.164062 C66.865171 28.591684 66.865171 28.591684 65.965408 30.755707 C64.824735 33.489298 63.662655 36.213195 62.5 38.9375 C61.727109 40.780661 60.955607 42.624405 60.185547 44.46875 C54.782004 57.373492 54.782004 57.373492 53.3125 60.3125 C49.864844 58.996004 46.56324 57.477424 43.251953 55.850342 C24.192651 46.580996 2.206897 42.132552 -18.6875 47.3125 C-23.221854 48.96003 -27.49471 50.797932 -29.6875 55.3125 C-30.867709 59.780436 -31.112297 63.453247 -28.999268 67.695801 C-23.550923 74.410659 -12.235867 75.97202 -4.3125 77.8125 C-3.082412 78.110193 -1.852324 78.407886 -0.584961 78.7146 C4.039192 79.832695 8.669124 80.925428 13.299805 82.016113 C34.979227 87.142531 57.702049 93.203406 70.742188 112.734375 C79.1088 126.470605 80.444416 142.059379 76.75 157.5625 C72.589776 173.398255 62.806927 184.826192 49.090332 193.287109 C31.377271 203.503376 11.669004 205.729626 -8.375 205.625 C-8.748033 205.623922 -8.748033 205.623922 -10.635803 205.618469 C-22.196986 205.56499 -33.425475 205.113536 -44.6875 202.3125 C-45.487202 202.113823 -46.286904 201.915146 -47.11084 201.710449 C-62.634889 197.704146 -78.86293 192.212168 -91.6875 182.3125 C-91.051342 178.040015 -89.559045 174.632957 -87.667969 170.761719 C-87.368126 170.144082 -87.068283 169.526444 -86.759354 168.890091 C-85.803273 166.924056 -84.839246 164.962041 -83.875 163 C-83.238413 161.693612 -82.602341 160.386974 -81.966797 159.080078 C-78.911102 152.805539 -75.824438 146.546868 -72.6875 140.3125 C-68.735335 141.176439 -65.900297 142.886083 -62.4375 145 C-45.284987 155.039836 -26.388199 159.599137 -6.5625 159.75 C-5.627205 159.760151 -4.691909 159.770303 -3.728271 159.780762 C4.221225 159.680036 12.878297 158.339221 19.3125 153.3125 C21.655468 150.300112 21.579116 147.150361 21.675781 143.410156 C21.172285 140.502873 20.010472 138.721212 18.3125 136.3125 C11.327966 131.807419 2.84455 129.843001 -5.125 127.8125 C-6.256636 127.514807 -7.388271 127.217114 -8.554199 126.9104 C-14.631618 125.320612 -20.7256 123.812546 -26.834229 122.348145 C-47.41469 117.380936 -67.877553 110.315811 -80.148438 91.9375 C-87.517456 79.369022 -88.591086 64.606349 -85.96875 50.425781 C-80.881957 33.093766 -69.949642 20.278653 -54.332031 11.40625 C-36.822124 2.233468 -19.458776 -0.092283 0 0 Z " fill="#162D4B" transform="translate(1714.6875,485.6875)"/>
<path d="M0 0 C0.776016 0.688359 1.552031 1.376719 2.351562 2.085938 C3.251328 2.877422 4.151094 3.668906 5.078125 4.484375 C7.524534 6.662878 9.953152 8.854756 12.351562 11.085938 C12.961289 11.584805 13.571016 12.083672 14.199219 12.597656 C14.389355 12.843223 14.389355 12.843223 15.351562 14.085938 C14.926938 17.349196 13.88231 18.897368 11.472656 21.074219 C11.178951 21.343069 11.178951 21.343069 9.692627 22.703613 C9.064451 23.262905 8.436274 23.822197 7.789062 24.398438 C7.14864 24.980933 6.508218 25.563428 5.848389 26.163574 C2.071594 29.587625 -1.76563 32.937029 -5.636719 36.253906 C-8.881803 39.209138 -11.932478 42.363983 -14.969482 45.531738 C-16.159583 46.752848 -17.400431 47.924073 -18.648438 49.085938 C-20.648438 49.085938 -20.648438 49.085938 -22.773438 47.023438 C-23.213008 46.568398 -23.652578 46.113359 -24.105469 45.644531 C-36.070703 33.55813 -49.448575 26.911587 -66.585938 26.773438 C-80.895441 26.761111 -93.065476 30.323955 -103.894531 40.117188 C-115.361533 52.082754 -119.162343 67.259055 -119 83.418945 C-118.570642 97.462532 -114.364035 110.956448 -104.558594 121.34375 C-92.85738 132.016022 -79.156406 135.73456 -63.644531 135.332031 C-48.535563 134.610505 -36.762612 127.837146 -26.242188 117.476562 C-23.996706 115.406932 -22.356852 114.339407 -19.648438 113.085938 C-19.235937 113.473381 -18.823438 113.860825 -18.398438 114.26001 C-4.288697 127.501671 -4.288697 127.501671 1.441406 132.425781 C4.763727 135.313279 7.999933 138.297297 11.25 141.265625 C13.351562 143.085938 13.351562 143.085938 15.351562 144.085938 C14.052863 152.684905 3.782229 159.861631 -2.648438 164.925781 C-28.813106 183.765705 -61.005343 188.047808 -92.523438 182.960938 C-111.027023 179.499513 -128.799418 170.775697 -142.648438 158.085938 C-143.10541 157.675371 -143.10541 157.675371 -145.417969 155.597656 C-162.014695 139.929418 -174.245974 116.883258 -175.59375 93.8125 C-175.611797 92.912734 -175.629844 92.012969 -175.648438 91.085938 C-175.667451 90.457842 -175.686465 89.829746 -175.706055 89.182617 C-176.571815 58.142985 -168.625934 31.406004 -147.14502 8.609375 C-110.454613 -28.739424 -40.52432 -34.289809 0 0 Z " fill="#162D4B" transform="translate(514.6484375,253.9140625)"/>
<path d="M0 0 C5.059663 4.688912 9.917639 9.5676 14.71875 14.519531 C10.542299 19.556973 6.161912 24.097878 1.34375 28.519531 C0.683267 29.131111 0.022783 29.74269 -0.657715 30.372803 C-4.614797 34.025381 -8.608673 37.627599 -12.710938 41.117188 C-14.264296 42.504391 -15.634762 43.976705 -17.03125 45.519531 C-19.28125 47.519531 -19.28125 47.519531 -21.28125 47.644531 C-23.461659 46.418051 -24.973808 44.910503 -26.691406 43.109375 C-37.122845 32.677937 -50.227457 26.419741 -65.081299 26.139893 C-65.475228 26.140658 -65.475228 26.140658 -67.46875 26.144531 C-68.295925 26.145417 -69.123101 26.146304 -69.975342 26.147217 C-84.649605 26.427635 -96.134687 32.147846 -106.28125 42.519531 C-116.207961 54.216851 -119.896222 68.772985 -119.589844 83.929688 C-118.276695 99.205431 -113.331438 112.764547 -101.933594 123.480469 C-88.891091 133.507253 -74.344018 135.949876 -58.28125 134.519531 C-43.280792 131.734636 -32.746996 123.119885 -22.28125 112.519531 C-19.274432 113.859526 -17.283624 115.317984 -15.03125 117.707031 C-12.013381 120.814224 -8.869805 123.670085 -5.589844 126.496094 C-2.226434 129.444057 1.052488 132.482372 4.330811 135.524414 C7.705956 138.641324 11.171095 141.603506 14.71875 144.519531 C6.959069 161.463376 -12.992805 172.013114 -29.636719 178.304688 C-58.12256 187.799968 -92.181921 186.448782 -119.404785 173.510254 C-128.556059 168.901866 -136.704417 163.453481 -144.28125 156.519531 C-145.193906 155.699687 -146.106563 154.879844 -147.046875 154.035156 C-164.626348 137.437777 -175.220166 114.497054 -176.388184 90.304688 C-177.239834 59.290988 -170.009842 33.100402 -148.792969 9.785156 C-111.726208 -29.051797 -41.566238 -35.74446 0 0 Z " fill="#162D4B" transform="translate(2166.28125,254.48046875)"/>
<path d="M0 0 C57.42 0 114.84 0 174 0 C174 14.85 174 29.7 174 45 C154.53 45.33 135.06 45.66 115 46 C115.005237 50.492705 115.010474 54.98541 115.015869 59.614258 C115.032416 74.434274 115.043526 89.254291 115.051812 104.074314 C115.056971 113.062406 115.064005 122.050488 115.075439 131.038574 C115.0854 138.871628 115.091857 146.704676 115.094088 154.537736 C115.095393 158.686128 115.098465 162.834501 115.10573 166.982887 C115.112511 170.886516 115.114613 174.79012 115.113108 178.693754 C115.113383 180.127251 115.115376 181.56075 115.119205 182.994242 C115.124175 184.950277 115.12239 186.906326 115.120255 188.862366 C115.121176 189.957456 115.122098 191.052546 115.123048 192.18082 C115 195 115 195 114 199 C95.85 199 77.7 199 59 199 C59 148.18 59 97.36 59 45 C39.53 45 20.06 45 0 45 C0 30.15 0 15.3 0 0 Z " fill="#152C4A" transform="translate(1383,236)"/>
<path d="M0 0 C57.09 0 114.18 0 173 0 C173 14.85 173 29.7 173 45 C153.53 45 134.06 45 114 45 C114 95.82 114 146.64 114 199 C95.85 199 77.7 199 59 199 C59 148.18 59 97.36 59 45 C39.53 45 20.06 45 0 45 C0 30.15 0 15.3 0 0 Z " fill="#152B49" transform="translate(1441,489)"/>
<path d="M0 0 C18.15 0 36.3 0 55 0 C56.705299 1.705299 56.124851 3.851434 56.133743 6.126347 C56.131513 6.866403 56.129282 7.60646 56.126984 8.368942 C56.128544 9.149605 56.130104 9.930268 56.131711 10.734588 C56.135724 13.370848 56.13253 16.00705 56.129395 18.643311 C56.130748 20.525325 56.132528 22.407339 56.134705 24.289352 C56.139281 29.417638 56.137488 34.545904 56.134326 39.67419 C56.131801 45.033918 56.13414 50.393644 56.135712 55.753372 C56.137534 64.761284 56.135126 73.769189 56.130371 82.7771 C56.124937 93.19197 56.126685 103.606822 56.132197 114.021692 C56.136737 122.955067 56.137375 131.888436 56.134759 140.821812 C56.133199 146.160734 56.132993 151.499646 56.136295 156.838568 C56.139186 161.862578 56.137177 166.886563 56.131401 171.91057 C56.130079 173.754428 56.130458 175.598289 56.132664 177.442146 C56.135398 179.960173 56.131966 182.478118 56.126984 184.99614 C56.129214 185.725042 56.131445 186.453945 56.133743 187.204936 C56.117929 191.329568 55.688027 194.871839 55 199 C36.85 199 18.7 199 0 199 C0 133.33 0 67.66 0 0 Z " fill="#172D4C" transform="translate(778,236)"/>
<path d="M0 0 C0.33 0 0.66 0 1 0 C0.514146 6.663141 -1.359697 11.922195 -4.0625 18 C-4.251025 18.435059 -4.251025 18.435059 -5.205078 20.636719 C-6.127593 22.762006 -7.059304 24.882714 -8 27 C-8.66 27 -9.32 27 -10 27 C-9.67 28.98 -9.34 30.96 -9 33 C-8.460832 33.000868 -8.460832 33.000868 -5.732317 33.005261 C41.970437 33.082127 89.673188 33.160131 137.375931 33.243668 C138.102288 33.244939 138.828645 33.246211 139.577013 33.247521 C155.376555 33.275189 171.176096 33.303053 186.975637 33.331117 C194.727817 33.344886 202.479998 33.358611 210.232178 33.372314 C211.003463 33.373679 211.774749 33.375043 212.569407 33.376448 C237.405053 33.420352 262.240702 33.46143 287.076356 33.500984 C312.67628 33.541771 338.276197 33.585525 363.87611 33.632821 C367.522228 33.639556 371.168345 33.646258 374.814463 33.652941 C375.173139 33.653599 375.173139 33.653599 376.988258 33.656928 C387.66962 33.676441 398.350985 33.693443 409.032354 33.709074 C525.592813 33.880631 525.592813 33.880631 582 35 C582 35.33 582 35.66 582 36 C577.201818 37.234825 572.513919 37.138781 567.596751 37.125841 C566.640864 37.127295 565.684978 37.128748 564.700125 37.130246 C561.478305 37.133912 558.256533 37.130416 555.034714 37.126984 C552.708741 37.128135 550.382769 37.129723 548.056796 37.131711 C542.322237 37.13546 536.587692 37.134535 530.853132 37.13166 C523.984372 37.128475 517.115618 37.131084 510.246859 37.133872 C496.783087 37.139144 483.31932 37.138679 469.855547 37.135793 C458.061345 37.133278 446.267143 37.132621 434.47294 37.133816 C434.081824 37.133854 434.081824 37.133854 432.102541 37.134047 C428.927028 37.134359 425.751515 37.134677 422.576002 37.135007 C392.763337 37.138068 362.950676 37.13529 333.138011 37.12991 C306.686814 37.125173 280.235621 37.125581 253.784424 37.130371 C224.055101 37.135736 194.325781 37.137842 164.596458 37.134759 C161.420825 37.134438 158.245192 37.134125 155.069559 37.133816 C154.287663 37.133737 153.505768 37.133658 152.700178 37.133576 C140.930379 37.132442 129.160582 37.133763 117.390783 37.136295 C103.983252 37.139166 90.575726 37.138416 77.168195 37.133015 C70.33396 37.130352 63.499734 37.129336 56.665499 37.132664 C50.393352 37.135671 44.121224 37.133961 37.84908 37.128686 C35.595116 37.127581 33.341151 37.128111 31.087188 37.130562 C16.033637 37.145658 1.035516 36.743236 -14 36 C-13.336467 31.667986 -12.3683 28.125119 -10.566406 24.121094 C-10.324385 23.578076 -10.324385 23.578076 -9.099609 20.830078 C-8.845986 20.270303 -8.845986 20.270303 -7.5625 17.4375 C-6.563197 15.207302 -5.564478 12.976843 -4.566406 10.746094 C-4.122405 9.763103 -3.678403 8.780112 -3.220947 7.767334 C-2.08763 5.198618 -1.024977 2.613557 0 0 Z " fill="#DE805A" transform="translate(1089,151)"/>
<path d="M0 0 C9.24 0 18.48 0 28 0 C27.67 0.66 27.34 1.32 27 2 C22.875 2.165 22.875 2.165 2 3 C1.525625 4.020938 1.525625 4.020938 -0.875 9.1875 C-1.408672 10.336055 -1.942344 11.484609 -2.492188 12.667969 C-3.738869 15.422941 -4.906616 18.181617 -6 21 C-6.66 21 -7.32 21 -8 21 C-8.061875 21.763125 -8.12375 22.52625 -8.1875 23.3125 C-9.344878 28.565215 -11.67198 33.17215 -14 38 C-14.66 37.67 -15.32 37.34 -16 37 C-13.962251 30.421323 -11.430212 24.194762 -8.5625 17.9375 C-8.180293 17.09123 -7.798086 16.244961 -7.404297 15.373047 C-5.046072 10.180149 -2.554771 5.109543 0 0 Z " fill="#D65722" transform="translate(1155,0)"/>
<path d="M0 0 C0.33 0 0.66 0 1 0 C0.514146 6.663141 -1.359697 11.922195 -4.0625 18 C-4.439551 18.870117 -4.816602 19.740234 -5.205078 20.636719 C-6.127593 22.762006 -7.059304 24.882714 -8 27 C-8.66 27 -9.32 27 -10 27 C-10.33 27.99 -10.66 28.98 -11 30 C-11.33 29.34 -11.66 28.68 -12 28 C-11.244345 25.860564 -10.381117 23.758846 -9.472656 21.679688 C-9.338773 21.370358 -9.338773 21.370358 -8.66124 19.804962 C-7.802286 17.825041 -6.932555 15.850065 -6.0625 13.875 C-5.479103 12.535467 -4.896411 11.195627 -4.314453 9.855469 C-2.884479 6.566702 -1.444799 3.282286 0 0 Z " fill="#DA7146" transform="translate(1089,151)"/>
<path d="M0 0 C0.33 0 0.66 0 1 0 C0.520606 4.714038 0.03166 8.665793 -2 13 C-2.66 13 -3.32 13 -4 13 C-4.061875 13.763125 -4.12375 14.52625 -4.1875 15.3125 C-5.344878 20.565215 -7.67198 25.17215 -10 30 C-10.66 29.67 -11.32 29.34 -12 29 C-9.919327 22.237036 -7.267503 15.861214 -4.3125 9.4375 C-3.896777 8.524199 -3.481055 7.610898 -3.052734 6.669922 C-2.039171 4.444742 -1.021548 2.221522 0 0 Z " fill="#D86C41" transform="translate(1151,8)"/>
<path d="M0 0 C0.33 0 0.66 0 1 0 C0.451447 4.571279 -0.417448 8.674358 -2 13 C-2.66 13 -3.32 13 -4 13 C-4.101836 13.868828 -4.203672 14.737656 -4.308594 15.632812 C-5.045348 19.220847 -6.247495 21.708396 -8.0625 24.875 C-8.610352 25.841797 -9.158203 26.808594 -9.722656 27.804688 C-10.14418 28.529141 -10.565703 29.253594 -11 30 C-11.33 29.34 -11.66 28.68 -12 28 C-11.244345 25.860564 -10.381117 23.758846 -9.472656 21.679688 C-9.338773 21.370358 -9.338773 21.370358 -8.66124 19.804962 C-7.802286 17.825041 -6.932555 15.850065 -6.0625 13.875 C-5.479103 12.535467 -4.896411 11.195627 -4.314453 9.855469 C-2.884479 6.566702 -1.444799 3.282286 0 0 Z " fill="#DA7146" transform="translate(1102,121)"/>
<path d="M0 0 C0.33 0 0.66 0 1 0 C1.60073 5.857117 -0.462043 9.896796 -3 15 C-3.5775 16.175625 -4.155 17.35125 -4.75 18.5625 C-5.1625 19.366875 -5.575 20.17125 -6 21 C-6.66 21 -7.32 21 -8 21 C-5.725648 13.817836 -2.964158 6.92418 0 0 Z " fill="#DB7248" transform="translate(1115,90)"/>
</svg>
